<svg width="455" height="304" xmlns="http://www.w3.org/2000/svg" xmlns:xlink="http://www.w3.org/1999/xlink" overflow="hidden"><defs><clipPath id="clip0"><rect x="413" y="208" width="455" height="304"/></clipPath></defs><g clip-path="url(#clip0)" transform="translate(-413 -208)"><path d="M543 341.5C543 286.548 586.428 242 640 242 693.572 242 737 286.548 737 341.5 737 396.452 693.572 441 640 441 586.428 441 543 396.452 543 341.5Z" fill="#05668D" fill-rule="evenodd"/><path d="M780.201 449.139C782.555 464.499 761.182 476.247 732.463 475.378 720.826 475.026 709.206 472.596 699.461 468.477 687.727 477.939 662.409 479.409 642.912 471.762 639.503 470.425 636.409 468.855 633.727 467.101 624.534 474.999 603.95 476.49 587.752 470.433 583.268 468.757 579.428 466.602 576.526 464.134 562.302 471.038 538.553 469.65 523.48 461.034 517.145 457.412 513.087 452.894 512.002 448.254 490.397 442.879 478.675 429.667 485.82 418.742 486.42 417.823 487.147 416.938 487.994 416.091 471.634 402.282 477.694 385.496 501.528 378.599 508.947 376.452 517.554 375.449 526.518 375.688 528.033 362.779 549.233 354.435 573.871 357.05 582.103 357.924 590.033 359.973 596.786 362.973 606.6 349.327 636.514 344.098 663.602 351.292 674.954 354.307 684.528 359.212 690.691 365.171 719.793 359.117 755.896 367.647 771.33 384.224 771.524 384.433 771.715 384.643 771.902 384.853 790.468 385.599 806.476 394.214 807.658 404.094 808.287 409.36 804.525 414.184 797.373 417.279 812.845 423.844 817.107 435.228 806.893 442.706 801 447.02 791.206 449.271 780.523 448.767Z" fill="#DEE2E6" fill-rule="evenodd"/><path d="M657.59 399.749C660.092 413.486 647.21 426.137 628.818 428.005 621.365 428.762 613.788 427.631 607.299 424.791 600.422 434.472 584.353 438.152 571.408 433.009 569.144 432.11 567.067 430.97 565.24 429.625 559.884 437.651 546.839 440.911 536.103 436.908 533.132 435.8 530.539 434.197 528.526 432.224 519.894 439.813 504.64 440.75 494.456 434.317 490.176 431.614 487.291 427.885 486.297 423.769 472.153 420.887 463.809 409.968 467.66 399.382 467.984 398.492 468.39 397.62 468.876 396.772 457.533 385.741 460.31 369.931 475.078 361.459 479.676 358.821 485.106 357.114 490.844 356.501 490.972 344.634 503.965 335.09 519.865 335.185 525.178 335.217 530.375 336.345 534.881 338.445 540.259 325.14 559.018 317.62 576.781 321.649 584.225 323.337 590.657 326.907 594.979 331.751 613.166 323.557 636.771 327.964 647.704 341.596 647.841 341.768 647.977 341.94 648.11 342.114 660.012 341.074 670.793 347.418 672.19 356.285 672.935 361.011 670.846 365.741 666.481 369.215 676.787 373.748 680.249 383.695 674.214 391.434 670.732 395.899 664.625 398.85 657.771 399.381Z" fill="#DEE2E6" fill-rule="evenodd"/></g></svg>