<svg width="455" height="304" xmlns="http://www.w3.org/2000/svg" xmlns:xlink="http://www.w3.org/1999/xlink" overflow="hidden"><defs><clipPath id="clip0"><rect x="413" y="208" width="455" height="304"/></clipPath></defs><g clip-path="url(#clip0)" transform="translate(-413 -208)"><path d="M567.807 300.892C566.748 283.561 585.062 270.014 608.712 270.634 618.295 270.885 627.745 273.485 635.55 278.017 645.777 267.176 666.755 265.194 682.405 273.591 685.142 275.059 687.605 276.794 689.718 278.742 697.758 269.701 714.831 267.755 727.85 274.396 731.454 276.234 734.499 278.622 736.752 281.375 748.887 273.392 768.407 274.66 780.35 284.209 785.37 288.222 788.459 293.277 789.087 298.508 806.608 304.309 815.522 319.094 808.997 331.531 808.449 332.577 807.798 333.587 807.051 334.555 819.757 349.955 813.791 369.003 793.726 377.099 787.479 379.619 780.319 380.861 772.935 380.704 770.943 395.312 752.967 405.011 732.786 402.366 726.043 401.483 719.616 399.266 714.216 395.962 705.332 411.507 680.345 417.795 658.404 410.007 649.209 406.742 641.59 401.319 636.847 394.662 612.483 401.872 583.179 392.687 571.396 374.146 571.247 373.913 571.102 373.678 570.96 373.443 555.681 372.834 542.966 363.3 542.559 352.148 542.342 346.204 545.724 340.705 551.805 337.116 539.414 329.892 536.551 317.079 545.41 308.499 550.522 303.549 558.733 300.881 567.521 301.316Z" fill="#212529" fill-rule="evenodd"/><path d="M780.201 438.539C782.555 453.899 761.182 465.647 732.463 464.778 720.826 464.426 709.206 461.996 699.461 457.877 687.727 467.339 662.409 468.809 642.912 461.162 639.503 459.825 636.409 458.255 633.727 456.501 624.534 464.399 603.95 465.89 587.752 459.833 583.268 458.157 579.428 456.002 576.526 453.534 562.302 460.438 538.553 459.05 523.48 450.434 517.145 446.812 513.087 442.294 512.002 437.654 490.397 432.279 478.675 419.067 485.82 408.142 486.42 407.223 487.147 406.338 487.994 405.491 471.634 391.682 477.694 374.896 501.528 367.999 508.947 365.852 517.554 364.849 526.518 365.088 528.033 352.179 549.233 343.835 573.871 346.45 582.103 347.323 590.033 349.373 596.786 352.373 606.6 338.727 636.514 333.498 663.602 340.692 674.954 343.707 684.528 348.612 690.691 354.571 719.793 348.517 755.896 357.047 771.33 373.624 771.524 373.833 771.715 374.043 771.902 374.253 790.468 374.999 806.476 383.614 807.658 393.494 808.287 398.76 804.525 403.584 797.373 406.679 812.845 413.244 817.107 424.628 806.893 432.106 801 436.42 791.206 438.671 780.523 438.167Z" fill="#DEE2E6" fill-rule="evenodd"/><path d="M657.59 389.081C660.092 402.702 647.21 415.246 628.818 417.098 621.365 417.849 613.788 416.727 607.299 413.911 600.422 423.511 584.353 427.159 571.408 422.06 569.144 421.168 567.067 420.038 565.24 418.705 559.884 426.662 546.839 429.895 536.103 425.926 533.132 424.827 530.539 423.238 528.526 421.281 519.894 428.806 504.64 429.736 494.456 423.357 490.176 420.676 487.291 416.979 486.297 412.898 472.153 410.04 463.809 399.214 467.66 388.718 467.984 387.835 468.39 386.97 468.876 386.13 457.533 375.193 460.31 359.516 475.078 351.116 479.676 348.501 485.106 346.808 490.844 346.2 490.972 334.433 503.965 324.971 519.865 325.065 525.178 325.097 530.375 326.215 534.881 328.297 540.259 315.105 559.018 307.649 576.781 311.643 584.225 313.317 590.657 316.857 594.979 321.66 613.166 313.535 636.771 317.905 647.704 331.421 647.841 331.592 647.977 331.763 648.11 331.935 660.012 330.904 670.793 337.194 672.19 345.986 672.935 350.672 670.846 355.362 666.481 358.807 676.787 363.301 680.249 373.164 674.214 380.837 670.732 385.264 664.625 388.191 657.771 388.717Z" fill="#DEE2E6" fill-rule="evenodd"/></g></svg>