<svg width="455" height="304" xmlns="http://www.w3.org/2000/svg" xmlns:xlink="http://www.w3.org/1999/xlink" overflow="hidden"><defs><clipPath id="clip0"><rect x="413" y="208" width="455" height="304"/></clipPath></defs><g clip-path="url(#clip0)" transform="translate(-413 -208)"><path d="M567.807 267.892C566.748 250.561 585.062 237.014 608.712 237.634 618.295 237.885 627.745 240.485 635.55 245.017 645.777 234.176 666.755 232.194 682.405 240.591 685.142 242.059 687.605 243.794 689.718 245.742 697.758 236.701 714.831 234.755 727.85 241.396 731.454 243.234 734.499 245.622 736.752 248.375 748.887 240.392 768.407 241.66 780.35 251.209 785.37 255.222 788.459 260.277 789.087 265.508 806.608 271.309 815.522 286.094 808.997 298.531 808.449 299.577 807.798 300.587 807.051 301.555 819.757 316.955 813.791 336.003 793.726 344.099 787.479 346.619 780.319 347.861 772.935 347.704 770.943 362.312 752.967 372.011 732.786 369.366 726.043 368.483 719.616 366.266 714.216 362.962 705.332 378.507 680.345 384.795 658.404 377.007 649.209 373.742 641.59 368.319 636.847 361.662 612.483 368.872 583.179 359.687 571.396 341.146 571.247 340.913 571.102 340.678 570.96 340.443 555.681 339.834 542.966 330.3 542.559 319.148 542.342 313.204 545.724 307.705 551.805 304.116 539.414 296.892 536.551 284.079 545.41 275.499 550.522 270.549 558.733 267.881 567.521 268.316Z" fill="#212529" fill-rule="evenodd"/><path d="M780.201 405.539C782.555 420.899 761.182 432.647 732.463 431.778 720.826 431.426 709.206 428.996 699.461 424.877 687.727 434.339 662.409 435.809 642.912 428.162 639.503 426.825 636.409 425.255 633.727 423.501 624.534 431.399 603.95 432.89 587.752 426.833 583.268 425.157 579.428 423.002 576.526 420.534 562.302 427.438 538.553 426.05 523.48 417.434 517.145 413.812 513.087 409.294 512.002 404.654 490.397 399.279 478.675 386.067 485.82 375.142 486.42 374.223 487.147 373.338 487.994 372.491 471.634 358.682 477.694 341.896 501.528 334.999 508.947 332.852 517.554 331.849 526.518 332.088 528.033 319.179 549.233 310.835 573.871 313.45 582.103 314.323 590.033 316.373 596.786 319.373 606.6 305.727 636.514 300.498 663.602 307.692 674.954 310.707 684.528 315.612 690.691 321.571 719.793 315.517 755.896 324.047 771.33 340.624 771.524 340.833 771.715 341.043 771.902 341.253 790.468 341.999 806.476 350.614 807.658 360.494 808.287 365.76 804.525 370.584 797.373 373.679 812.845 380.244 817.107 391.628 806.893 399.106 801 403.42 791.206 405.671 780.523 405.167Z" fill="#DEE2E6" fill-rule="evenodd"/><path d="M657.59 356.081C660.092 369.702 647.21 382.246 628.818 384.098 621.365 384.849 613.788 383.727 607.299 380.911 600.422 390.511 584.353 394.159 571.408 389.06 569.144 388.168 567.067 387.038 565.24 385.705 559.884 393.662 546.839 396.895 536.103 392.926 533.132 391.827 530.539 390.238 528.526 388.281 519.894 395.806 504.64 396.736 494.456 390.357 490.176 387.676 487.291 383.979 486.297 379.898 472.153 377.04 463.809 366.214 467.66 355.718 467.984 354.835 468.39 353.97 468.876 353.13 457.533 342.193 460.31 326.516 475.078 318.116 479.676 315.501 485.106 313.808 490.844 313.2 490.972 301.433 503.965 291.971 519.865 292.065 525.178 292.097 530.375 293.215 534.881 295.297 540.259 282.105 559.018 274.649 576.781 278.643 584.225 280.317 590.657 283.857 594.979 288.66 613.166 280.535 636.771 284.905 647.704 298.421 647.841 298.592 647.977 298.763 648.11 298.935 660.012 297.904 670.793 304.194 672.19 312.986 672.935 317.672 670.846 322.362 666.481 325.807 676.787 330.301 680.249 340.164 674.214 347.837 670.732 352.264 664.625 355.191 657.771 355.717Z" fill="#DEE2E6" fill-rule="evenodd"/><path d="M0 0 14.993 31" stroke="#05668D" stroke-width="6" stroke-miterlimit="8" fill="none" fill-rule="evenodd" transform="matrix(-1 0 0 1 583.993 435)"/><path d="M0 0 14.993 31" stroke="#05668D" stroke-width="6" stroke-miterlimit="8" fill="none" fill-rule="evenodd" transform="matrix(-1 0 0 1 630.993 433)"/><path d="M0 0 14.993 31" stroke="#05668D" stroke-width="6" stroke-miterlimit="8" fill="none" fill-rule="evenodd" transform="matrix(-1 0 0 1 670.993 441)"/><path d="M0 0 14.993 31" stroke="#05668D" stroke-width="6" stroke-miterlimit="8" fill="none" fill-rule="evenodd" transform="matrix(-1 0 0 1 603.993 457)"/><path d="M0 0 14.993 31" stroke="#05668D" stroke-width="6" stroke-miterlimit="8" fill="none" fill-rule="evenodd" transform="matrix(-1 0 0 1 645.993 457)"/></g></svg>