<svg width="455" height="304" xmlns="http://www.w3.org/2000/svg" xmlns:xlink="http://www.w3.org/1999/xlink" overflow="hidden"><defs><clipPath id="clip0"><rect x="413" y="208" width="455" height="304"/></clipPath></defs><g clip-path="url(#clip0)" transform="translate(-413 -208)"><path d="M597 327C597 275.638 640.205 234 693.5 234 746.795 234 790 275.638 790 327 790 378.362 746.795 420 693.5 420 640.205 420 597 378.362 597 327Z" fill="#DE6E4B" fill-rule="evenodd"/><path d="M780.201 405.539C782.555 420.899 761.182 432.647 732.463 431.778 720.826 431.426 709.206 428.996 699.461 424.877 687.727 434.339 662.409 435.809 642.912 428.162 639.503 426.825 636.409 425.255 633.727 423.501 624.534 431.399 603.95 432.89 587.752 426.833 583.268 425.157 579.428 423.002 576.526 420.534 562.302 427.438 538.553 426.05 523.48 417.434 517.145 413.812 513.087 409.294 512.002 404.654 490.397 399.279 478.675 386.067 485.82 375.142 486.42 374.223 487.147 373.338 487.994 372.491 471.634 358.682 477.694 341.896 501.528 334.999 508.947 332.852 517.554 331.849 526.518 332.088 528.033 319.179 549.233 310.835 573.871 313.45 582.103 314.323 590.033 316.373 596.786 319.373 606.6 305.727 636.514 300.498 663.602 307.692 674.954 310.707 684.528 315.612 690.691 321.571 719.793 315.517 755.896 324.047 771.33 340.624 771.524 340.833 771.715 341.043 771.902 341.253 790.468 341.999 806.476 350.614 807.658 360.494 808.287 365.76 804.525 370.584 797.373 373.679 812.845 380.244 817.107 391.628 806.893 399.106 801 403.42 791.206 405.671 780.523 405.167Z" fill="#DEE2E6" fill-rule="evenodd"/><path d="M657.59 356.081C660.092 369.702 647.21 382.246 628.818 384.098 621.365 384.849 613.788 383.727 607.299 380.911 600.422 390.511 584.353 394.159 571.408 389.06 569.144 388.168 567.067 387.038 565.24 385.705 559.884 393.662 546.839 396.895 536.103 392.926 533.132 391.827 530.539 390.238 528.526 388.281 519.894 395.806 504.64 396.736 494.456 390.357 490.176 387.676 487.291 383.979 486.297 379.898 472.153 377.04 463.809 366.214 467.66 355.718 467.984 354.835 468.39 353.97 468.876 353.13 457.533 342.193 460.31 326.516 475.078 318.116 479.676 315.501 485.106 313.808 490.844 313.2 490.972 301.433 503.965 291.971 519.865 292.065 525.178 292.097 530.375 293.215 534.881 295.297 540.259 282.105 559.018 274.649 576.781 278.643 584.225 280.317 590.657 283.857 594.979 288.66 613.166 280.535 636.771 284.905 647.704 298.421 647.841 298.592 647.977 298.763 648.11 298.935 660.012 297.904 670.793 304.194 672.19 312.986 672.935 317.672 670.846 322.362 666.481 325.807 676.787 330.301 680.249 340.164 674.214 347.837 670.732 352.264 664.625 355.191 657.771 355.717Z" fill="#DEE2E6" fill-rule="evenodd"/><path d="M0 0 14.993 31" stroke="#05668D" stroke-width="6" stroke-miterlimit="8" fill="none" fill-rule="evenodd" transform="matrix(-1 0 0 1 583.993 435)"/><path d="M0 0 14.993 31" stroke="#05668D" stroke-width="6" stroke-miterlimit="8" fill="none" fill-rule="evenodd" transform="matrix(-1 0 0 1 630.993 433)"/><path d="M0 0 14.993 31" stroke="#05668D" stroke-width="6" stroke-miterlimit="8" fill="none" fill-rule="evenodd" transform="matrix(-1 0 0 1 670.993 441)"/><path d="M0 0 14.993 31" stroke="#05668D" stroke-width="6" stroke-miterlimit="8" fill="none" fill-rule="evenodd" transform="matrix(-1 0 0 1 603.993 457)"/><path d="M0 0 14.993 31" stroke="#05668D" stroke-width="6" stroke-miterlimit="8" fill="none" fill-rule="evenodd" transform="matrix(-1 0 0 1 645.993 457)"/></g></svg>