<svg width="455" height="304" xmlns="http://www.w3.org/2000/svg" xmlns:xlink="http://www.w3.org/1999/xlink" overflow="hidden"><defs><clipPath id="clip0"><rect x="413" y="208" width="455" height="304"/></clipPath><clipPath id="clip1"><rect x="498" y="218" width="284" height="284"/></clipPath><clipPath id="clip2"><rect x="498" y="218" width="284" height="284"/></clipPath><clipPath id="clip3"><rect x="498" y="218" width="284" height="284"/></clipPath></defs><g clip-path="url(#clip0)" transform="translate(-413 -208)"><g clip-path="url(#clip1)"><g clip-path="url(#clip2)"><g clip-path="url(#clip3)"><path d="M724.685 311.403C723.871 309.987 722.064 309.499 720.647 310.312L701.181 321.482 705.876 304.147C706.303 302.569 705.371 300.944 703.794 300.517 702.216 300.09 700.591 301.022 700.164 302.599L693.924 325.648 678.091 334.736 687.156 301.247C687.566 299.666 686.616 298.051 685.035 297.641 683.479 297.238 681.885 298.151 681.446 299.697L670.835 338.901 656.294 347.244C653.014 343.056 648.247 340.292 642.982 339.528L642.982 322.766 671.699 294.05C672.854 292.894 672.853 291.021 671.697 289.865 670.541 288.71 668.668 288.711 667.513 289.867L642.979 314.4 642.979 296.141 659.862 279.258C660.997 278.083 660.965 276.21 659.789 275.075 658.643 273.968 656.826 273.968 655.679 275.075L642.979 287.775 642.979 265.333C642.979 263.699 641.655 262.375 640.021 262.375 638.387 262.375 637.062 263.699 637.062 265.333L637.062 287.775 624.362 275.075C623.187 273.94 621.314 273.973 620.179 275.148 619.072 276.294 619.072 278.112 620.179 279.258L637.062 296.141 637.062 314.4 612.529 289.867C611.354 288.732 609.481 288.764 608.346 289.94 607.239 291.086 607.239 292.904 608.346 294.05L637.062 322.766 637.062 339.528C631.879 340.276 627.173 342.961 623.892 347.042L609.461 338.525 599.323 299.197C598.914 297.615 597.301 296.663 595.718 297.072 594.136 297.48 593.184 299.094 593.593 300.677L602.249 334.263 586.525 324.982 580.57 301.869C580.161 300.286 578.548 299.335 576.965 299.743 575.383 300.152 574.431 301.766 574.84 303.348L579.322 320.737 559.995 309.33C558.583 308.499 556.765 308.97 555.935 310.381 555.104 311.793 555.574 313.611 556.986 314.442L576.313 325.849 558.921 330.328C557.338 330.731 556.382 332.342 556.785 333.926 557.12 335.238 558.303 336.156 559.658 336.153 559.907 336.153 560.156 336.121 560.397 336.058L583.517 330.1 599.243 339.38 565.642 348.022C564.059 348.425 563.103 350.036 563.507 351.619 563.841 352.932 565.024 353.849 566.379 353.847 566.628 353.847 566.877 353.816 567.119 353.755L606.447 343.62 620.868 352.134C618.817 357.089 618.785 362.651 620.78 367.63L606.251 375.975 567.047 365.358C565.489 364.868 563.828 365.734 563.338 367.293 562.848 368.851 563.715 370.512 565.273 371.002 565.349 371.026 565.426 371.046 565.503 371.064L598.995 380.131 583.159 389.222 560.125 382.986C558.566 382.496 556.906 383.363 556.416 384.922 555.926 386.48 556.792 388.141 558.351 388.631 558.427 388.654 558.503 388.675 558.581 388.693L575.914 393.388 556.451 404.558C555.034 405.375 554.548 407.186 555.365 408.602 556.182 410.019 557.993 410.505 559.409 409.688L578.875 398.518 574.183 415.853C573.756 417.426 574.682 419.048 576.254 419.48 576.505 419.552 576.765 419.588 577.026 419.587 578.362 419.586 579.532 418.69 579.881 417.401L586.12 394.352 601.956 385.264 592.871 418.753C592.443 420.33 593.375 421.956 594.952 422.384 596.529 422.812 598.155 421.88 598.583 420.303L609.195 381.099 623.735 372.756C627.015 376.945 631.783 379.708 637.048 380.472L637.048 397.234 608.346 425.95C607.211 427.125 607.243 428.998 608.419 430.133 609.565 431.241 611.383 431.241 612.529 430.133L637.062 405.6 637.062 423.859 620.179 440.742C619.044 441.917 619.077 443.79 620.252 444.925 621.398 446.032 623.216 446.032 624.362 444.925L637.062 432.225 637.062 454.667C637.062 456.301 638.387 457.625 640.021 457.625 641.655 457.625 642.979 456.301 642.979 454.667L642.979 432.225 655.679 444.925C656.814 446.1 658.687 446.133 659.862 444.998 661.038 443.863 661.07 441.99 659.935 440.815 659.911 440.79 659.887 440.765 659.862 440.742L642.979 423.859 642.979 405.6 667.513 430.133C668.648 431.309 670.52 431.341 671.696 430.206 672.871 429.071 672.903 427.198 671.768 426.023 671.744 425.998 671.72 425.974 671.696 425.95L642.979 397.234 642.979 380.472C648.162 379.724 652.869 377.039 656.15 372.958L670.58 381.475 680.707 420.803C681.042 422.109 682.219 423.022 683.567 423.024 683.817 423.025 684.066 422.993 684.307 422.93 685.888 422.522 686.84 420.911 686.434 419.329L677.778 385.737 693.501 395.018 699.463 418.131C699.8 419.437 700.977 420.35 702.326 420.35 702.576 420.351 702.824 420.32 703.066 420.258 704.648 419.851 705.601 418.239 705.194 416.656 705.193 416.655 705.193 416.654 705.193 416.652L700.711 399.263 720.038 410.67C721.445 411.5 723.259 411.032 724.089 409.625 724.919 408.217 724.451 406.403 723.043 405.573L703.72 394.166 721.112 389.687C722.694 389.278 723.646 387.665 723.237 386.082 722.829 384.5 721.215 383.548 719.632 383.957L696.504 389.915 680.781 380.634 714.378 371.978C715.962 371.57 716.914 369.955 716.505 368.372 716.097 366.789 714.483 365.836 712.899 366.245L673.58 376.38 659.161 367.866C661.214 362.911 661.244 357.348 659.247 352.37L673.775 344.025 712.979 354.634C713.231 354.705 713.492 354.741 713.754 354.74 715.388 354.738 716.711 353.412 716.709 351.778 716.707 350.444 715.813 349.277 714.526 348.927L681.032 339.866 696.871 330.778 719.919 337.014C720.171 337.085 720.43 337.121 720.692 337.12 722.325 337.118 723.648 335.792 723.646 334.158 723.645 332.824 722.75 331.657 721.464 331.307L704.128 326.612 723.591 315.442C725.008 314.629 725.498 312.821 724.685 311.404 724.685 311.403 724.685 311.403 724.685 311.403ZM640.015 374.792C631.846 374.792 625.223 368.169 625.223 360 625.223 351.831 631.846 345.208 640.015 345.208 648.184 345.208 654.806 351.831 654.806 360 654.797 368.165 648.18 374.782 640.015 374.792Z" fill="#E1E2E6"/></g></g></g></g></svg>